{
	"asset":{
		"generator":"Khronos glTF Blender I/O v5.0.21",
		"version":"2.0"
	},
	"extensionsUsed":[
		"KHR_materials_specular"
	],
	"scene":0,
	"scenes":[
		{
			"name":"Scene",
			"nodes":[
				1
			]
		}
	],
	"nodes":[
		{
			"mesh":0,
			"name":"eyes",
			"rotation":[
				-0.622510552406311,
				0,
				0,
				0.7826115489006042
			],
			"translation":[
				0.019369760528206825,
				3.459162712097168,
				-0.044501304626464844
			]
		},
		{
			"children":[
				0
			],
			"mesh":1,
			"name":"Circle"
		}
	],
	"materials":[
		{
			"doubleSided":true,
			"extensions":{
				"KHR_materials_specular":{
					"specularFactor":0.19540229439735413
				}
			},
			"name":"Eye_Ball",
			"pbrMetallicRoughness":{
				"baseColorFactor":[
					0.3762621581554413,
					0.17133906483650208,
					0.05857366696000099,
					1
				],
				"metallicFactor":0,
				"roughnessFactor":0.5
			}
		},
		{
			"doubleSided":true,
			"extensions":{
				"KHR_materials_specular":{
					"specularFactor":0.09195402264595032
				}
			},
			"name":"Iris",
			"pbrMetallicRoughness":{
				"baseColorFactor":[
					0.006512090563774109,
					0.004776952788233757,
					0.003346535377204418,
					1
				],
				"metallicFactor":0,
				"roughnessFactor":0.5
			}
		},
		{
			"doubleSided":true,
			"name":"Cheetah_Body",
			"pbrMetallicRoughness":{
				"baseColorTexture":{
					"index":0
				},
				"metallicFactor":0,
				"roughnessFactor":0.5
			}
		}
	],
	"meshes":[
		{
			"name":"Sphere",
			"primitives":[
				{
					"attributes":{
						"POSITION":0,
						"NORMAL":1
					},
					"indices":2,
					"material":0
				},
				{
					"attributes":{
						"POSITION":3,
						"NORMAL":4
					},
					"indices":5,
					"material":1
				}
			]
		},
		{
			"name":"Circle.001",
			"primitives":[
				{
					"attributes":{
						"POSITION":6,
						"NORMAL":7,
						"TEXCOORD_0":8,
						"TEXCOORD_1":9
					},
					"indices":10,
					"material":2
				}
			]
		}
	],
	"textures":[
		{
			"sampler":0,
			"source":0
		}
	],
	"images":[
		{
			"mimeType":"image/png",
			"name":"Cheetah_<UDIM>_UV_B19.png",
			"uri":"Cheetah_1024_UV_B19.png"
		}
	],
	"accessors":[
		{
			"bufferView":0,
			"componentType":5126,
			"count":120,
			"max":[
				0.3789534568786621,
				-0.07479022443294525,
				0.30083736777305603
			],
			"min":[
				-0.3789534568786621,
				-0.26672062277793884,
				0.00485375477001071
			],
			"type":"VEC3"
		},
		{
			"bufferView":1,
			"componentType":5126,
			"count":120,
			"type":"VEC3"
		},
		{
			"bufferView":2,
			"componentType":5123,
			"count":576,
			"type":"SCALAR"
		},
		{
			"bufferView":3,
			"componentType":5126,
			"count":72,
			"max":[
				0.32765498757362366,
				-0.23200161755084991,
				0.19474489986896515
			],
			"min":[
				-0.32765498757362366,
				-0.26672062277793884,
				0.11049920320510864
			],
			"type":"VEC3"
		},
		{
			"bufferView":4,
			"componentType":5126,
			"count":72,
			"type":"VEC3"
		},
		{
			"bufferView":5,
			"componentType":5123,
			"count":72,
			"type":"SCALAR"
		},
		{
			"bufferView":6,
			"componentType":5126,
			"count":3966,
			"max":[
				0.843909740447998,
				3.963594913482666,
				0.6458706855773926
			],
			"min":[
				-0.6873480677604675,
				0.04176616668701172,
				-7.235024929046631
			],
			"type":"VEC3"
		},
		{
			"bufferView":7,
			"componentType":5126,
			"count":3966,
			"type":"VEC3"
		},
		{
			"bufferView":8,
			"componentType":5126,
			"count":3966,
			"type":"VEC2"
		},
		{
			"bufferView":9,
			"componentType":5126,
			"count":3966,
			"type":"VEC2"
		},
		{
			"bufferView":10,
			"componentType":5123,
			"count":19620,
			"type":"SCALAR"
		}
	],
	"bufferViews":[
		{
			"buffer":0,
			"byteLength":1440,
			"byteOffset":0,
			"target":34962
		},
		{
			"buffer":0,
			"byteLength":1440,
			"byteOffset":1440,
			"target":34962
		},
		{
			"buffer":0,
			"byteLength":1152,
			"byteOffset":2880,
			"target":34963
		},
		{
			"buffer":0,
			"byteLength":864,
			"byteOffset":4032,
			"target":34962
		},
		{
			"buffer":0,
			"byteLength":864,
			"byteOffset":4896,
			"target":34962
		},
		{
			"buffer":0,
			"byteLength":144,
			"byteOffset":5760,
			"target":34963
		},
		{
			"buffer":0,
			"byteLength":47592,
			"byteOffset":5904,
			"target":34962
		},
		{
			"buffer":0,
			"byteLength":47592,
			"byteOffset":53496,
			"target":34962
		},
		{
			"buffer":0,
			"byteLength":31728,
			"byteOffset":101088,
			"target":34962
		},
		{
			"buffer":0,
			"byteLength":31728,
			"byteOffset":132816,
			"target":34962
		},
		{
			"buffer":0,
			"byteLength":39240,
			"byteOffset":164544,
			"target":34963
		}
	],
	"samplers":[
		{
			"magFilter":9729,
			"minFilter":9987
		}
	],
	"buffers":[
		{
			"byteLength":203784,
			"uri":"Cheetah_Head_44_FinalModel.bin"
		}
	]
}
