<?xml version="1.0" encoding="UTF-8" standalone="no"?>
<!-- Created with Inkscape (http://www.inkscape.org/) -->

<svg
   version="1.0"
   width="420"
   height="373"
   viewBox="0 0 413.435 365.722"
   id="svg2"
   xml:space="preserve"
   sodipodi:docname="warning.svg"
   inkscape:version="1.2.2 (b0a8486541, 2022-12-01)"
   xmlns:inkscape="http://www.inkscape.org/namespaces/inkscape"
   xmlns:sodipodi="http://sodipodi.sourceforge.net/DTD/sodipodi-0.dtd"
   xmlns:xlink="http://www.w3.org/1999/xlink"
   xmlns="http://www.w3.org/2000/svg"
   xmlns:svg="http://www.w3.org/2000/svg"><sodipodi:namedview
   id="namedview25"
   pagecolor="#ffffff"
   bordercolor="#000000"
   borderopacity="0.25"
   inkscape:showpageshadow="2"
   inkscape:pageopacity="0.0"
   inkscape:pagecheckerboard="0"
   inkscape:deskcolor="#d1d1d1"
   showgrid="false"
   inkscape:zoom="1.0938338"
   inkscape:cx="92.335784"
   inkscape:cy="189.69975"
   inkscape:window-width="1854"
   inkscape:window-height="1003"
   inkscape:window-x="66"
   inkscape:window-y="40"
   inkscape:window-maximized="1"
   inkscape:current-layer="svg2" /><defs
   id="defs13"><linearGradient
   id="linearGradient5211"><stop
     style="stop-color: rgb(255, 255, 255); stop-opacity: 0.628866;"
     offset="0"
     id="stop5213" /><stop
     style="stop-color: rgb(255, 255, 255); stop-opacity: 0;"
     offset="1"
     id="stop5215" /></linearGradient><linearGradient
   id="linearGradient2893"><stop
     style="stop-color: rgb(255, 255, 255); stop-opacity: 0.573964;"
     offset="0"
     id="stop2895" /><stop
     style="stop-color: rgb(255, 255, 255); stop-opacity: 0.25098;"
     offset="0.19"
     id="stop2897" /><stop
     style="stop-color: rgb(107, 107, 107); stop-opacity: 0.12549;"
     offset="0.60000002"
     id="stop2901" /><stop
     style="stop-color: rgb(0, 0, 0); stop-opacity: 0.12549;"
     offset="1"
     id="stop2899" /></linearGradient><radialGradient
   cx="847.04108"
   cy="615.58044"
   r="300"
   fx="847.04108"
   fy="615.58044"
   id="radialGradient3236"
   xlink:href="#linearGradient2893"
   gradientUnits="userSpaceOnUse"
   gradientTransform="matrix(1.21503, 0, 0, 1.26667, -841.04, -591.101)" /><linearGradient
   id="linearGradient3139"><stop
     style="stop-color: rgb(255, 255, 0); stop-opacity: 1;"
     offset="0"
     id="stop3141" /><stop
     style="stop-color: rgb(255, 255, 232); stop-opacity: 1;"
     offset="1"
     id="stop3143" /></linearGradient>
	
<linearGradient
   x1="5.4911467e-05"
   y1="182.86166"
   x2="413.43466"
   y2="182.86166"
   id="linearGradient4105"
   xlink:href="#linearGradient3139"
   gradientUnits="userSpaceOnUse" /><linearGradient
   x1="109.46228"
   y1="322.42599"
   x2="246.50478"
   y2="-79.847679"
   id="linearGradient5196"
   xlink:href="#linearGradient3139"
   gradientUnits="userSpaceOnUse" /><radialGradient
   cx="173.78099"
   cy="150.8327"
   r="206.90388"
   fx="173.78099"
   fy="150.8327"
   id="radialGradient5217"
   xlink:href="#linearGradient5211"
   gradientUnits="userSpaceOnUse"
   gradientTransform="matrix(-0.610106,0.661982,-0.682918,-0.629401,402.986,80.1496)" /></defs>
<path
   d="M 222.96725,25.584927 C 222.96725,25.584927 217.87808,14.575759 207.42113,14.576744 C 196.96419,14.576744 191.86222,25.583943 191.86222,25.583943 L 18.46388,325.93617 C 18.46388,325.93617 11.475854,335.84777 16.70383,344.90494 C 21.932792,353.96112 34.016889,352.87438 34.016889,352.87438 L 380.82931,352.8852 C 380.82931,352.8852 392.9075,353.98179 398.13548,344.92562 C 403.36444,335.87041 396.38232,325.94897 396.38232,325.94897 L 222.96725,25.584927 z "
   style="fill: rgb(255, 255, 0); fill-opacity: 1; fill-rule: nonzero; stroke: rgb(223, 24, 0); stroke-width: 21.6561; stroke-linecap: round; stroke-linejoin: round;"
   id="path5" />
<g
   transform="matrix(0.984368, 0, 0, 0.984368, 3.93461, 3.7487)"
   id="Ebene_3">
	<path
   d="M 244.087,136.653 C 243.021,141.087 223.689,221.907 221.288,231.408 C 218.888,240.91 216.62,249.914 214.481,258.419 C 214.481,258.419 213.37,263.785 207.558,263.785 L 205.806,263.785 C 199.994,263.785 198.883,258.419 198.883,258.419 C 196.744,249.914 194.477,240.91 192.076,231.408 C 189.676,221.907 170.347,141.087 169.278,136.653 C 155.581,79.854 258.166,78.283 244.087,136.653 z "
   id="path8" />
	<circle
   cx="206.717"
   cy="308.54599"
   r="24.256001"
   id="circle10" />
</g>
<path
   d="m 207.42187,3.7486992 c -16.63266,0 -23.8644,14.1152908 -24.94757,16.4266348 L 9.0717821,320.53052 h 0.030762 c -1.4836084,2.12838 -10.0855663,15.39543 -1.7841664,29.77712 8.3221263,14.41332 24.1723803,13.59831 26.7009733,13.38125 0.0415,-0.004 0.150685,0.003 0.184569,0 l 346.62047,0.0308 v -0.0308 c 2.57607,0.22046 18.3955,1.03671 26.70097,-13.35049 8.33158,-14.42812 -0.34665,-27.75027 -1.78416,-29.80788 h 0.0308 L 232.46173,20.390665 232.33868,20.175334 C 231.24163,17.833999 224.03503,3.7471353 207.42187,3.7486992 Z"
   style="fill:none;fill-opacity:1;fill-rule:nonzero;stroke:none;stroke-width:22;stroke-linecap:round;stroke-linejoin:round;stroke-opacity:1"
   id="path5192" /></svg>
